<?xml version="1.0" encoding="iso-8859-1"?>
<!-- Generator: Adobe Illustrator 18.0.0, SVG Export Plug-In . SVG Version: 6.00 Build 0)  -->
<!DOCTYPE svg PUBLIC "-//W3C//DTD SVG 1.1//EN" "http://www.w3.org/Graphics/SVG/1.1/DTD/svg11.dtd">
<svg version="1.1" id="Capa_1" xmlns="http://www.w3.org/2000/svg" xmlns:xlink="http://www.w3.org/1999/xlink" x="0px" y="0px"
	 viewBox="0 0 397.715 397.715" style="enable-background:new 0 0 397.715 397.715;" xml:space="preserve">
<path d="M373.081,0c-11.475,0-20.776,9.302-20.776,20.775v45.448h-10.982v-8.552c0-13.114-10.629-23.745-23.744-23.745
	c-13.111,0-23.742,10.631-23.742,23.745v8.552h-71.234v-8.552c0-13.114-10.629-23.745-23.744-23.745
	c-13.113,0-23.744,10.631-23.744,23.745v8.552h-11.871v-8.552c0-13.114-10.629-23.745-23.745-23.745
	c-13.114,0-23.745,10.631-23.745,23.745v8.552h-11.873v-8.552c0-13.114-10.629-23.745-23.742-23.745S56.393,44.558,56.393,57.672
	v8.552H45.41V20.775C45.41,9.302,36.11,0,24.634,0C13.162,0,3.857,9.302,3.857,20.775v356.166c0,11.473,9.305,20.773,20.776,20.773
	c11.476,0,20.776-9.301,20.776-20.773v-45.446h10.983v8.55c0,13.113,10.631,23.742,23.744,23.742s23.742-10.629,23.742-23.742v-8.55
	h62.925v8.55c0,13.113,10.63,23.742,23.745,23.742c13.112,0,23.741-10.629,23.741-23.742v-8.55h15.435v8.55
	c0,13.113,10.631,23.742,23.745,23.742c13.116,0,23.745-10.629,23.745-23.742v-8.55h16.621v8.55
	c0,13.113,10.631,23.742,23.742,23.742c13.115,0,23.744-10.629,23.744-23.742v-8.55h10.982v45.446
	c0,11.473,9.302,20.773,20.776,20.773c11.478,0,20.776-9.301,20.776-20.773V20.775C393.857,9.302,384.559,0,373.081,0z
	 M352.305,307.751h-10.982v-8.56c0-13.109-10.629-23.74-23.744-23.74c-13.111,0-23.742,10.631-23.742,23.74v8.56h-16.621v-8.56
	c0-13.109-10.629-23.74-23.745-23.74c-13.114,0-23.745,10.631-23.745,23.74v8.56H214.29v-8.56c0-13.109-10.629-23.74-23.741-23.74
	c-13.115,0-23.745,10.631-23.745,23.74v8.56h-62.925v-8.56c0-13.109-10.629-23.74-23.742-23.74s-23.744,10.631-23.744,23.74v8.56
	H45.41v-97.02h10.983v8.55c0,13.119,10.631,23.748,23.744,23.748s23.742-10.629,23.742-23.748v-8.55h11.873v8.55
	c0,13.119,10.631,23.748,23.745,23.748c13.116,0,23.745-10.629,23.745-23.748v-8.55h66.482v8.55
	c0,13.119,10.631,23.748,23.745,23.748c13.116,0,23.745-10.629,23.745-23.748v-8.55h16.621v8.55
	c0,13.119,10.631,23.748,23.742,23.748c13.115,0,23.744-10.629,23.744-23.748v-8.55h10.982V307.751z M352.305,186.987h-10.982
	v-8.556c0-13.111-10.629-23.744-23.744-23.744c-13.111,0-23.742,10.633-23.742,23.744v8.556h-16.621v-8.556
	c0-13.111-10.629-23.744-23.745-23.744c-13.114,0-23.745,10.633-23.745,23.744v8.556h-66.482v-8.556
	c0-13.111-10.629-23.744-23.745-23.744c-13.114,0-23.745,10.633-23.745,23.744v8.556h-11.873v-8.556
	c0-13.111-10.629-23.744-23.742-23.744s-23.744,10.633-23.744,23.744v8.556H45.41v-97.02h10.983v8.554
	c0,13.115,10.631,23.744,23.744,23.744s23.742-10.629,23.742-23.744v-8.554h11.873v8.554c0,13.115,10.631,23.744,23.745,23.744
	c13.116,0,23.745-10.629,23.745-23.744v-8.554h11.871v8.554c0,13.115,10.631,23.744,23.744,23.744
	c13.115,0,23.744-10.629,23.744-23.744v-8.554h71.234v8.554c0,13.115,10.631,23.744,23.742,23.744
	c13.115,0,23.744-10.629,23.744-23.744v-8.554h10.982V186.987z"/>
<g>
</g>
<g>
</g>
<g>
</g>
<g>
</g>
<g>
</g>
<g>
</g>
<g>
</g>
<g>
</g>
<g>
</g>
<g>
</g>
<g>
</g>
<g>
</g>
<g>
</g>
<g>
</g>
<g>
</g>
</svg>
